HIERARCHY
ROOT newVegas:Hips
{
	OFFSET 0.000000 96.479958 0.000000
	CHANNELS 6 Xposition Yposition Zposition Xrotation Yrotation Zrotation
	JOINT newVegas:Pelvis
	{
		OFFSET 0.000000 0.000000 0.000000
		CHANNELS 3 Xrotation Yrotation Zrotation
		JOINT newVegas:LeftUpLeg
		{
			OFFSET 18.735201 -5.666702 -4.541200
			CHANNELS 3 Xrotation Yrotation Zrotation
			JOINT newVegas:LeftLeg
			{
				OFFSET -0.021200 -31.938179 0.493100
				CHANNELS 3 Xrotation Yrotation Zrotation
				JOINT newVegas:LeftFoot
				{
					OFFSET 0.021200 -31.938179 -4.336299
					CHANNELS 3 Xrotation Yrotation Zrotation
					JOINT newVegas:LeftToeBase
					{
						OFFSET 0.943001 -26.722000 15.023500
						CHANNELS 3 Xrotation Yrotation Zrotation
						End Site
						{
							OFFSET 0.000000 30.670183 0.000000
						}
					}
				}
				JOINT newVegas:Left_PantLeg
				{
					OFFSET 0.663870 -9.044666 -1.108900
					CHANNELS 3 Xrotation Yrotation Zrotation
					End Site
					{
						OFFSET 1.415995 20.635357 0.000000
					}
				}
			}
		}
		JOINT newVegas:RightUpLeg
		{
			OFFSET -18.735201 -5.666702 -4.541200
			CHANNELS 3 Xrotation Yrotation Zrotation
			JOINT newVegas:RightLeg
			{
				OFFSET 0.018946 -31.938133 0.493100
				CHANNELS 3 Xrotation Yrotation Zrotation
				JOINT newVegas:RightFoot
				{
					OFFSET -0.018946 -31.938126 -4.336299
					CHANNELS 3 Xrotation Yrotation Zrotation
					JOINT newVegas:RightToeBase
					{
						OFFSET -0.943001 -26.722004 15.023500
						CHANNELS 3 Xrotation Yrotation Zrotation
						End Site
						{
							OFFSET 0.000000 30.670187 0.000000
						}
					}
				}
				JOINT newVegas:Right_PantLeg
				{
					OFFSET -0.661674 -9.044716 -1.108900
					CHANNELS 3 Xrotation Yrotation Zrotation
					End Site
					{
						OFFSET -1.415958 20.635269 0.000000
					}
				}
			}
		}
	}
	JOINT newVegas:Spine
	{
		OFFSET 0.000000 10.199997 -0.299500
		CHANNELS 3 Xrotation Yrotation Zrotation
		JOINT newVegas:Spine1
		{
			OFFSET 0.000000 11.900002 -1.516600
			CHANNELS 3 Xrotation Yrotation Zrotation
			JOINT newVegas:Spine2
			{
				OFFSET 0.000000 13.600006 -2.842500
				CHANNELS 3 Xrotation Yrotation Zrotation
				JOINT newVegas:Neck
				{
					OFFSET 0.000000 9.624100 -2.890100
					CHANNELS 3 Xrotation Yrotation Zrotation
					JOINT newVegas:Head
					{
						OFFSET 0.000000 14.068802 -1.351900
						CHANNELS 3 Xrotation Yrotation Zrotation
						JOINT newVegas:Hair_Back
						{
							OFFSET 0.000000 3.231903 -17.524799
							CHANNELS 3 Xrotation Yrotation Zrotation
							End Site
							{
								OFFSET 0.000000 19.849884 0.000000
							}
						}
						JOINT newVegas:Hair_Front
						{
							OFFSET 0.000000 31.260406 4.573800
							CHANNELS 3 Xrotation Yrotation Zrotation
							JOINT newVegas:Hair_Front1
							{
								OFFSET 0.000000 2.284103 11.993300
								CHANNELS 3 Xrotation Yrotation Zrotation
								JOINT newVegas:Hair_Front2
								{
									OFFSET 0.000000 2.284103 11.993300
									CHANNELS 3 Xrotation Yrotation Zrotation
									End Site
									{
										OFFSET 0.000000 12.208862 0.000000
									}
								}
							}
						}
						JOINT newVegas:Jowel
						{
							OFFSET 0.000000 -7.458206 6.864100
							CHANNELS 3 Xrotation Yrotation Zrotation
							End Site
							{
								OFFSET 0.000000 19.849884 0.000000
							}
						}
					}
				}
				JOINT newVegas:LeftShoulder
				{
					OFFSET 15.263000 10.923401 -0.547700
					CHANNELS 3 Xrotation Yrotation Zrotation
					JOINT newVegas:LeftArm
					{
						OFFSET 25.438599 -2.830597 -13.032500
						CHANNELS 3 Xrotation Yrotation Zrotation
						JOINT newVegas:LeftForeArm
						{
							OFFSET 29.960503 0.000000 0.000000
							CHANNELS 3 Xrotation Yrotation Zrotation
							JOINT newVegas:LeftHand
							{
								OFFSET 27.849251 0.000000 0.000000
								CHANNELS 3 Xrotation Yrotation Zrotation
								JOINT newVegas:LeftHandThumb1
								{
									OFFSET 4.487587 -3.305161 6.305391
									CHANNELS 3 Xrotation Yrotation Zrotation
									JOINT newVegas:LeftHandThumb2
									{
										OFFSET 5.480453 -3.164139 3.164143
										CHANNELS 3 Xrotation Yrotation Zrotation
										JOINT newVegas:LeftHandThumb3
										{
											OFFSET 5.159721 -2.978973 2.978967
											CHANNELS 3 Xrotation Yrotation Zrotation
											End Site
											{
												OFFSET 2.494507 5.926697 1.738678
											}
										}
									}
								}
								JOINT newVegas:LeftHandIndex1
								{
									OFFSET 18.578728 -0.527832 5.208049
									CHANNELS 3 Xrotation Yrotation Zrotation
									JOINT newVegas:LeftHandIndex2
									{
										OFFSET 3.192009 0.000000 0.000000
										CHANNELS 3 Xrotation Yrotation Zrotation
										JOINT newVegas:LeftHandIndex3
										{
											OFFSET 3.835129 0.000000 0.000000
											CHANNELS 3 Xrotation Yrotation Zrotation
											End Site
											{
												OFFSET -0.034599 3.816971 0.371180
											}
										}
									}
								}
								JOINT newVegas:LeftHandMiddle1
								{
									OFFSET 18.476105 0.000000 0.000000
									CHANNELS 3 Xrotation Yrotation Zrotation
									JOINT newVegas:LeftHandMiddle2
									{
										OFFSET 3.324875 0.000000 0.000000
										CHANNELS 3 Xrotation Yrotation Zrotation
										JOINT newVegas:LeftHandMiddle3
										{
											OFFSET 4.596550 0.000000 0.000000
											CHANNELS 3 Xrotation Yrotation Zrotation
											End Site
											{
												OFFSET 0.057701 4.578827 0.399218
											}
										}
									}
								}
								JOINT newVegas:LeftHandRing1
								{
									OFFSET 17.732719 0.121887 -4.201567
									CHANNELS 3 Xrotation Yrotation Zrotation
									JOINT newVegas:LeftHandRing2
									{
										OFFSET 2.733170 0.000000 0.000000
										CHANNELS 3 Xrotation Yrotation Zrotation
										JOINT newVegas:LeftHandRing3
										{
											OFFSET 3.178268 0.000000 0.000000
											CHANNELS 3 Xrotation Yrotation Zrotation
											End Site
											{
												OFFSET 0.119102 3.170624 0.185394
											}
										}
									}
								}
								JOINT newVegas:LeftHandPinky1
								{
									OFFSET 15.989624 -0.606689 -7.535461
									CHANNELS 3 Xrotation Yrotation Zrotation
									JOINT newVegas:LeftHandPinky2
									{
										OFFSET 2.538986 0.000000 0.000000
										CHANNELS 3 Xrotation Yrotation Zrotation
										JOINT newVegas:LeftHandPinky3
										{
											OFFSET 2.593102 0.000000 0.000000
											CHANNELS 3 Xrotation Yrotation Zrotation
											End Site
											{
												OFFSET -0.150902 2.584198 0.152708
											}
										}
									}
								}
							}
							JOINT newVegas:Left_Sleeve
							{
								OFFSET 0.267448 -0.649796 0.577675
								CHANNELS 3 Xrotation Yrotation Zrotation
								End Site
								{
									OFFSET 0.000000 15.991241 0.000000
								}
							}
							JOINT newVegas:Left_CapeC
							{
								OFFSET 15.715958 -8.608795 -6.935905
								CHANNELS 3 Xrotation Yrotation Zrotation
								JOINT newVegas:Left_CapeC1
								{
									OFFSET 0.000000 -8.688499 0.000000
									CHANNELS 3 Xrotation Yrotation Zrotation
									End Site
									{
										OFFSET 0.000000 8.688499 0.000000
									}
								}
							}
						}
						JOINT newVegas:Left_CapeB
						{
							OFFSET 26.118385 -8.608795 -7.079235
							CHANNELS 3 Xrotation Yrotation Zrotation
							JOINT newVegas:Left_CapeB1
							{
								OFFSET 0.000000 -8.688499 0.000000
								CHANNELS 3 Xrotation Yrotation Zrotation
								End Site
								{
									OFFSET 0.000000 8.688499 0.000000
								}
							}
						}
						JOINT newVegas:Left_CapeA
						{
							OFFSET 5.115639 -8.608795 -10.395809
							CHANNELS 3 Xrotation Yrotation Zrotation
							JOINT newVegas:Left_CapeA1
							{
								OFFSET 0.000000 -8.688499 0.000000
								CHANNELS 3 Xrotation Yrotation Zrotation
								End Site
								{
									OFFSET 0.000000 8.688499 0.000000
								}
							}
						}
					}
				}
				JOINT newVegas:RightShoulder
				{
					OFFSET -15.263000 10.923401 -0.547700
					CHANNELS 3 Xrotation Yrotation Zrotation
					JOINT newVegas:RightArm
					{
						OFFSET -25.438599 -2.830597 -13.032500
						CHANNELS 3 Xrotation Yrotation Zrotation
						JOINT newVegas:RightForeArm
						{
							OFFSET -29.960503 0.000000 0.000000
							CHANNELS 3 Xrotation Yrotation Zrotation
							JOINT newVegas:RightHand
							{
								OFFSET -27.849251 0.000000 0.000000
								CHANNELS 3 Xrotation Yrotation Zrotation
								JOINT newVegas:RightHandThumb1
								{
									OFFSET -4.487587 -3.305161 6.305391
									CHANNELS 3 Xrotation Yrotation Zrotation
									JOINT newVegas:RightHandThumb2
									{
										OFFSET -5.480453 -3.164139 3.164143
										CHANNELS 3 Xrotation Yrotation Zrotation
										JOINT newVegas:RightHandThumb3
										{
											OFFSET -5.159721 -2.978973 2.978967
											CHANNELS 3 Xrotation Yrotation Zrotation
											End Site
											{
												OFFSET -2.494507 5.926697 1.738678
											}
										}
									}
								}
								JOINT newVegas:RightHandIndex1
								{
									OFFSET -18.578728 -0.527832 5.208049
									CHANNELS 3 Xrotation Yrotation Zrotation
									JOINT newVegas:RightHandIndex2
									{
										OFFSET -3.192009 0.000000 0.000000
										CHANNELS 3 Xrotation Yrotation Zrotation
										JOINT newVegas:RightHandIndex3
										{
											OFFSET -3.835129 0.000000 0.000000
											CHANNELS 3 Xrotation Yrotation Zrotation
											End Site
											{
												OFFSET 0.034599 3.816971 0.371180
											}
										}
									}
								}
								JOINT newVegas:RightHandMiddle1
								{
									OFFSET -18.476105 0.000000 0.000000
									CHANNELS 3 Xrotation Yrotation Zrotation
									JOINT newVegas:RightHandMiddle2
									{
										OFFSET -3.324875 0.000000 0.000000
										CHANNELS 3 Xrotation Yrotation Zrotation
										JOINT newVegas:RightHandMiddle3
										{
											OFFSET -4.596550 0.000000 0.000000
											CHANNELS 3 Xrotation Yrotation Zrotation
											End Site
											{
												OFFSET -0.057701 4.578827 0.399218
											}
										}
									}
								}
								JOINT newVegas:RightHandRing1
								{
									OFFSET -17.732719 0.121887 -4.201567
									CHANNELS 3 Xrotation Yrotation Zrotation
									JOINT newVegas:RightHandRing2
									{
										OFFSET -2.733170 0.000000 0.000000
										CHANNELS 3 Xrotation Yrotation Zrotation
										JOINT newVegas:RightHandRing3
										{
											OFFSET -3.178268 0.000000 0.000000
											CHANNELS 3 Xrotation Yrotation Zrotation
											End Site
											{
												OFFSET -0.119102 3.170624 0.185394
											}
										}
									}
								}
								JOINT newVegas:RightHandPinky1
								{
									OFFSET -15.989624 -0.606689 -7.535461
									CHANNELS 3 Xrotation Yrotation Zrotation
									JOINT newVegas:RightHandPinky2
									{
										OFFSET -2.538986 0.000000 0.000000
										CHANNELS 3 Xrotation Yrotation Zrotation
										JOINT newVegas:RightHandPinky3
										{
											OFFSET -2.593102 0.000000 0.000000
											CHANNELS 3 Xrotation Yrotation Zrotation
											End Site
											{
												OFFSET 0.150902 2.584198 0.152708
											}
										}
									}
								}
							}
							JOINT newVegas:Right_CapeC
							{
								OFFSET -15.715958 -8.608795 -6.935905
								CHANNELS 3 Xrotation Yrotation Zrotation
								JOINT newVegas:Right_CapeC1
								{
									OFFSET 0.000000 -8.688499 0.000000
									CHANNELS 3 Xrotation Yrotation Zrotation
									End Site
									{
										OFFSET 0.000000 8.688499 0.000000
									}
								}
							}
							JOINT newVegas:Right_Sleeve
							{
								OFFSET -0.267448 -0.649994 0.577675
								CHANNELS 3 Xrotation Yrotation Zrotation
								End Site
								{
									OFFSET 0.000000 15.991302 0.000000
								}
							}
						}
						JOINT newVegas:Right_CapeA
						{
							OFFSET -5.115540 -8.608795 -10.395824
							CHANNELS 3 Xrotation Yrotation Zrotation
							JOINT newVegas:Right_CapeA1
							{
								OFFSET 0.000000 -8.688499 0.000000
								CHANNELS 3 Xrotation Yrotation Zrotation
								End Site
								{
									OFFSET 0.000000 8.688499 0.000000
								}
							}
						}
						JOINT newVegas:Right_CapeB
						{
							OFFSET -26.118187 -8.608795 -7.079266
							CHANNELS 3 Xrotation Yrotation Zrotation
							JOINT newVegas:Right_CapeB1
							{
								OFFSET 0.000000 -8.688499 0.000000
								CHANNELS 3 Xrotation Yrotation Zrotation
								End Site
								{
									OFFSET 0.000000 8.688499 0.000000
								}
							}
						}
					}
				}
				JOINT newVegas:Left_Collar
				{
					OFFSET 18.625099 8.655502 8.828100
					CHANNELS 3 Xrotation Yrotation Zrotation
					JOINT newVegas:Left_Collar1
					{
						OFFSET 14.783401 10.540405 -1.259500
						CHANNELS 3 Xrotation Yrotation Zrotation
						End Site
						{
							OFFSET 0.000000 18.199875 0.000000
						}
					}
				}
				JOINT newVegas:Collar_Back
				{
					OFFSET 0.000000 15.630707 -20.132601
					CHANNELS 3 Xrotation Yrotation Zrotation
					End Site
					{
						OFFSET 0.000000 22.523010 0.000000
					}
				}
				JOINT newVegas:Left_Peck
				{
					OFFSET 17.239599 -5.132599 25.482599
					CHANNELS 3 Xrotation Yrotation Zrotation
					End Site
					{
						OFFSET 0.000000 22.523010 0.000000
					}
				}
				JOINT newVegas:Right_Peck
				{
					OFFSET -17.239599 -5.132202 25.482599
					CHANNELS 3 Xrotation Yrotation Zrotation
					End Site
					{
						OFFSET 0.000000 22.523010 0.000000
					}
				}
				JOINT newVegas:Right_Collar
				{
					OFFSET -18.625099 8.655792 8.828100
					CHANNELS 3 Xrotation Yrotation Zrotation
					JOINT newVegas:Right_Collar1
					{
						OFFSET -14.783401 10.539993 -1.259500
						CHANNELS 3 Xrotation Yrotation Zrotation
						End Site
						{
							OFFSET 0.000000 18.199631 0.000000
						}
					}
				}
			}
		}
		JOINT newVegas:Belly
		{
			OFFSET 0.000000 -6.540398 9.014299
			CHANNELS 3 Xrotation Yrotation Zrotation
			End Site
			{
				OFFSET 0.000000 11.566666 0.000000
			}
		}
	}
	JOINT newVegas:ElvisFacialAnim_Joint
	{
		OFFSET 1.000000 -95.330101 -8.825800
		CHANNELS 3 Xrotation Yrotation Zrotation
		End Site
		{
			OFFSET 0.000000 35.315800 0.000000
		}
	}
}
MOTION
Frames: 4
Frame Time: 0.016667
-0.200819 93.919464 4.293847 -0.316973 -0.854462 0.805481 0.000000 0.000000 0.000000 -11.363695 12.475364 10.829040 17.972185 -10.257437 0.390802 -7.643035 0.695833 -8.028104 0.000000 -0.000000 0.000000 0.000001 0.000001 0.000000 -10.493711 -8.536589 -15.708788 17.626840 7.136128 2.652983 -8.092852 -1.145556 9.477208 -0.000000 -0.000000 -0.000000 0.000000 -0.000000 -0.000001 0.602047 0.534191 0.195764 0.948881 0.543752 -0.036077 0.949056 0.535715 -0.036774 0.705539 -0.506616 -0.271102 0.705506 -0.506616 -0.271102 0.000000 -0.000000 0.000000 0.705691 -0.506615 -0.271101 0.705474 -0.506616 -0.271102 0.000000 -0.000000 0.000000 0.000000 -0.000000 0.000000 0.691656 -2.499305 -11.191563 5.273946 -17.247121 -62.895278 0.000002 -21.850197 0.000015 -1.967779 -14.998028 7.080653 -0.666104 2.158566 4.837368 11.853344 25.414294 17.057482 0.000001 -0.000000 -0.000005 0.021813 -0.966726 -7.590993 0.267897 1.752964 -17.376525 -0.000000 -0.000001 -0.000000 -0.077455 2.661813 -15.698693 0.268776 1.755773 -17.405226 -0.000000 0.000001 0.000001 0.137975 3.644558 -21.134837 0.386565 2.094644 -20.910469 -0.000005 -0.000002 -0.000003 0.949912 5.544498 -27.129283 0.268795 1.755835 -17.405883 0.000001 0.000003 0.000000 0.000002 -0.000001 -0.000000 0.000002 -0.000001 -0.000000 0.000001 -0.000001 -0.000000 0.000000 0.000001 0.000001 0.000001 0.000001 -0.000000 0.000000 0.000001 0.000001 0.000001 0.000001 0.000000 0.450398 7.851257 13.847200 5.786521 9.805980 61.054952 -0.000002 23.253205 0.000006 -0.662974 7.830451 -2.975887 -1.664515 -0.169099 -4.216929 12.708010 -29.838197 -16.127721 0.000002 -0.000001 -0.000002 0.037639 1.264476 6.828366 0.213850 -1.396492 17.412954 -0.000000 -0.000000 -0.000001 -0.135870 -2.206370 14.998774 0.214463 -1.398413 17.437700 0.000002 -0.000003 -0.000003 0.031314 -3.078189 20.463790 0.308453 -1.668285 20.948518 0.000000 0.000002 0.000005 0.775428 -4.872492 26.474283 0.214428 -1.398281 17.436018 -0.000000 0.000002 -0.000001 -0.000001 -0.000001 0.000000 -0.000003 0.000001 0.000000 -0.000001 -0.000001 0.000001 0.000001 0.000001 0.000001 0.000001 0.000000 0.000001 0.000001 0.000001 0.000001 0.000001 -0.000000 0.000001 -0.000000 0.000000 0.000000 -0.000000 0.000000 0.000000 -0.000000 0.000000 0.000000 -0.000000 0.000000 0.000000 -0.000000 0.000000 0.000000 -0.000000 0.000000 0.000000 -0.000000 0.000000 0.000000 -0.000000 -0.000000 0.000000 0.000000 0.000000 0.000000 
-0.203440 93.919052 4.324821 -0.316974 -0.874044 0.805299 0.000000 0.000000 -0.000000 -11.325507 12.485021 10.831957 17.957993 -10.258875 0.390101 -7.665359 0.715453 -8.033262 -0.000000 0.000000 -0.000000 -0.000000 -0.000000 -0.000000 -10.466983 -8.529280 -15.709539 17.606843 7.136120 2.645603 -8.099765 -1.146921 9.491089 -0.000000 0.000000 0.000000 0.000000 0.000000 -0.000000 0.602047 0.534234 0.185031 0.948880 0.543752 -0.041389 0.949055 0.535716 -0.036774 0.709810 -0.495355 -0.261574 0.709815 -0.495355 -0.261574 -0.000000 0.000000 -0.000000 0.709813 -0.495355 -0.261574 0.709811 -0.495356 -0.261574 0.000000 -0.000000 -0.000000 -0.000000 0.000000 -0.000000 0.691601 -2.499366 -11.192655 5.373539 -17.224132 -62.870129 -0.000000 -21.977807 -0.000014 -2.049692 -15.016724 7.242966 -0.708397 2.148826 4.824271 11.885540 25.397628 16.959737 0.000003 -0.000004 -0.000003 0.004556 -0.960441 -7.844297 0.274108 1.772686 -17.578465 0.000001 0.000002 0.000002 -0.083339 2.660494 -15.925206 0.276578 1.780488 -17.658324 -0.000005 0.000001 0.000001 0.130343 3.636588 -21.401547 0.396290 2.119875 -21.174495 -0.000004 0.000001 0.000002 0.949940 5.539181 -27.389818 0.277965 1.784782 -17.702477 -0.000000 -0.000001 -0.000003 -0.000000 0.000001 0.000001 -0.000000 0.000001 0.000001 -0.000001 0.000001 0.000001 0.000002 0.000001 -0.000001 0.000002 0.000000 -0.000002 0.000002 0.000001 -0.000001 0.000002 0.000000 -0.000001 0.452104 7.851159 13.834701 5.909142 9.840621 61.120221 0.000007 23.315443 -0.000013 -0.695394 7.878868 -3.018670 -1.689566 -0.129795 -4.285257 12.722645 -29.827334 -15.983449 0.000001 -0.000000 -0.000001 0.037483 1.312008 6.928890 0.220915 -1.418772 17.699879 0.000003 -0.000001 -0.000000 -0.145125 -2.185771 15.152143 0.220042 -1.416038 17.664782 -0.000004 0.000002 0.000004 0.022667 -3.061564 20.607557 0.316091 -1.688105 21.209609 0.000000 -0.000001 -0.000001 0.769654 -4.857941 26.616680 0.219016 -1.412799 17.623148 -0.000005 -0.000003 -0.000003 0.000000 0.000001 -0.000000 -0.000001 -0.000000 0.000001 0.000000 0.000001 -0.000000 0.000000 0.000000 -0.000000 0.000001 0.000000 -0.000000 0.000000 0.000000 -0.000000 0.000001 -0.000000 0.000001 -0.000000 -0.000000 -0.000000 -0.000000 -0.000000 -0.000000 -0.000000 -0.000000 -0.000000 -0.000000 -0.000000 -0.000000 -0.000000 -0.000000 -0.000000 -0.000000 -0.000000 -0.000000 -0.000000 -0.000000 -0.000000 0.000000 0.000000 0.000000 0.000000 0.000000 -0.000000 
-0.206485 93.917740 4.357849 -0.316975 -0.891369 0.805244 -0.000000 0.000000 0.000000 -11.285645 12.494449 10.833940 17.949959 -10.260018 0.389695 -7.695870 0.730656 -8.037055 0.000000 -0.000000 -0.000000 -0.000000 0.000000 0.000001 -10.442014 -8.523811 -15.705026 17.604797 7.131415 2.639393 -8.121395 -1.147753 9.496629 0.000000 0.000000 -0.000000 0.000000 -0.000000 -0.000000 0.602044 0.538010 0.174495 0.948881 0.543752 -0.047615 0.949056 0.535716 -0.042374 0.713760 -0.482731 -0.253509 0.713761 -0.482731 -0.253509 -0.000000 0.000000 -0.000000 0.713756 -0.482731 -0.253509 0.713828 -0.482731 -0.253508 0.000000 -0.000000 0.000000 -0.000000 0.000000 -0.000000 0.692010 -2.516156 -11.214496 5.525728 -17.246013 -62.798856 0.000001 -22.198151 -0.000010 -2.131726 -14.873364 7.452647 -0.830598 2.120684 4.786321 11.978250 25.349207 16.677316 0.000003 -0.000003 -0.000005 -0.041665 -0.942363 -8.576636 0.292457 1.829553 -18.162149 -0.000002 0.000002 0.000001 -0.100879 2.656968 -16.579856 0.299767 1.851695 -18.389881 -0.000000 0.000002 -0.000000 0.107220 3.614052 -22.172252 0.425004 2.192515 -21.937837 -0.000002 0.000001 0.000001 0.949227 5.524172 -28.142784 0.305282 1.868199 -18.559789 -0.000001 -0.000002 0.000001 0.000003 -0.000000 -0.000000 0.000003 -0.000000 -0.000000 0.000003 0.000000 0.000000 0.000004 -0.000001 -0.000000 0.000004 0.000000 -0.000001 0.000004 -0.000001 -0.000000 0.000004 0.000000 -0.000001 0.449468 7.849635 13.857038 6.043051 9.889812 61.153771 -0.000000 23.361516 -0.000018 -0.730125 7.851460 -3.040905 -1.761839 -0.016416 -4.482741 12.764986 -29.795925 -15.566356 -0.000001 -0.000005 -0.000001 0.036053 1.449429 7.219398 0.241912 -1.482952 18.529415 0.000001 -0.000003 -0.000001 -0.172598 -2.126501 15.595308 0.236553 -1.466869 18.321212 0.000001 0.000002 0.000003 -0.002933 -3.013800 21.023052 0.338694 -1.745221 21.964242 0.000002 -0.000001 0.000003 0.752411 -4.816154 27.028259 0.232547 -1.454695 18.163927 -0.000002 0.000001 0.000001 0.000000 -0.000001 0.000001 0.000000 0.000000 0.000000 0.000000 -0.000001 0.000001 -0.000000 0.000000 0.000000 0.000000 0.000000 0.000000 -0.000000 0.000000 0.000000 0.000000 -0.000001 0.000000 0.000000 -0.000000 -0.000000 0.000000 -0.000000 -0.000000 0.000000 -0.000000 -0.000000 0.000000 -0.000000 -0.000000 0.000000 -0.000000 -0.000000 0.000000 -0.000000 -0.000000 0.000000 -0.000000 -0.000000 -0.000000 0.000000 -0.000000 -0.000000 0.000000 0.000000 
-0.209495 93.913307 4.391407 -0.316975 -0.902866 0.801866 -0.000000 0.000000 -0.000000 -11.262858 12.498017 10.843213 17.973663 -10.262476 0.390109 -7.742739 0.739479 -8.039523 0.000000 0.000000 -0.000000 -0.000001 0.000000 0.000001 -10.417503 -8.508460 -15.691016 17.622214 7.111372 2.625130 -8.156161 -1.155213 9.505947 -0.000000 -0.000000 0.000000 0.000001 -0.000000 0.000000 0.603265 0.543349 0.166488 0.952789 0.543752 -0.056660 0.952979 0.540084 -0.051263 0.718585 -0.467924 -0.251424 0.718590 -0.467924 -0.251424 0.000000 0.000000 0.000000 0.718725 -0.467924 -0.251423 0.718436 -0.467926 -0.251424 -0.000000 0.000000 0.000000 0.000000 0.000000 0.000000 0.691129 -2.553943 -11.273600 5.631548 -17.345947 -62.656925 -0.000000 -22.462030 -0.000010 -2.273016 -14.267547 7.402776 -1.025759 2.075847 4.725338 12.125240 25.271058 16.226627 0.000003 -0.000003 0.000000 -0.116540 -0.912140 -9.746195 0.322956 1.919986 -19.094409 0.000001 0.000003 0.000001 -0.130690 2.652281 -17.625329 0.338684 1.964809 -19.558416 -0.000001 0.000000 -0.000002 0.066877 3.579858 -23.403085 0.472876 2.307733 -23.157073 0.000004 0.000001 0.000000 0.945488 5.501410 -29.345146 0.351510 2.000524 -19.929187 0.000006 -0.000003 0.000001 0.000001 -0.000003 0.000003 0.000001 -0.000003 0.000003 0.000000 -0.000003 0.000003 -0.000001 -0.000001 0.000002 -0.000001 -0.000001 0.000001 -0.000001 -0.000001 0.000002 -0.000001 -0.000001 0.000002 0.446511 7.844589 13.940670 6.222917 9.968891 61.098843 -0.000008 23.471771 0.000029 -0.775151 7.617306 -2.904982 -1.876947 0.163941 -4.797927 12.832615 -29.745764 -14.900249 -0.000001 -0.000002 0.000003 0.030681 1.669084 7.683176 0.277384 -1.584791 19.854378 -0.000002 0.000005 0.000001 -0.218975 -2.032688 16.303141 0.264129 -1.547635 19.369686 0.000000 0.000001 -0.000001 -0.045738 -2.938334 21.686634 0.376358 -1.835796 23.169600 -0.000000 -0.000001 -0.000002 0.723242 -4.750163 27.685468 0.254973 -1.521343 19.027698 -0.000004 -0.000002 -0.000003 0.000001 0.000002 -0.000002 0.000001 0.000003 -0.000002 0.000001 0.000002 -0.000001 0.000001 0.000001 0.000000 0.000001 0.000002 0.000000 0.000001 0.000001 0.000000 0.000001 0.000001 0.000000 -0.000000 -0.000000 -0.000000 -0.000000 -0.000000 -0.000000 -0.000000 -0.000000 -0.000000 -0.000000 -0.000000 -0.000000 -0.000000 -0.000000 -0.000000 -0.000000 -0.000000 -0.000000 -0.000000 -0.000000 -0.000000 0.000000 0.000000 0.000000 -0.000000 0.000000 -0.000000 
